<?xml version="1.0" encoding="UTF-8"?><svg id="_图层_1" xmlns="http://www.w3.org/2000/svg" viewBox="0 0 627.48 596.77"><path d="M626.4,228.29l-216.04-31.39L313.73,1.13l-96.62,195.78L1.07,228.29l156.33,152.39-36.9,215.17,193.23-101.6,193.24,101.6-36.9-215.17,156.33-152.39ZM471.89,547.57l-158.16-83.14-158.15,83.14,30.21-176.11-127.95-124.72,176.82-25.69,79.08-160.23,79.08,160.23,176.82,25.69-127.95,124.72,30.21,176.11Z" style="fill:#29abe2; stroke:#000; stroke-miterlimit:10;"/><path d="M313.39,464.03h0c0-73.61-60.22-133.83-133.83-133.83h0c73.61,0,133.83-60.23,133.83-133.83h0c0,73.61,60.22,133.83,133.83,133.83h0c-73.61,0-133.83,60.23-133.83,133.83Z" style="fill:#f7931e; stroke:#000; stroke-miterlimit:10; stroke-width:2px;"/><rect x="368.42" y="393.15" width="202.51" height="202.51" rx="36" ry="36" style="fill:#e6e6e6; stroke:#000; stroke-miterlimit:10; stroke-width:2px;"/><polygon points="487.67 502.12 478.68 517.68 478.67 517.7 514.64 580 514.66 580 532.63 580 487.67 502.12"/><polygon points="523.64 408.64 523.64 408.62 505.66 408.62 505.65 408.64 469.68 470.94 469.67 470.95 469.67 470.94 433.7 408.64 433.69 408.62 415.71 408.62 415.7 408.64 460.67 486.52 460.68 486.52 460.68 486.53 406.71 580 424.69 580 424.71 580 523.64 408.64"/></svg>